<?xml version="1.0" encoding="iso-8859-1"?>
<!-- Generator: Adobe Illustrator 16.0.0, SVG Export Plug-In . SVG Version: 6.00 Build 0)  -->
<!DOCTYPE svg PUBLIC "-//W3C//DTD SVG 1.1//EN" "http://www.w3.org/Graphics/SVG/1.1/DTD/svg11.dtd">
<svg version="1.1" id="Capa_1" xmlns="http://www.w3.org/2000/svg" xmlns:xlink="http://www.w3.org/1999/xlink" x="0px" y="0px"
	 width="55.24px" height="55.241px" viewBox="0 0 55.24 55.241" style="enable-background:new 0 0 55.24 55.241;"
	 xml:space="preserve">
<g>
	<path d="M2.686,52.945l0.879-0.891c1.802,0.98,4.625,0.671,7.996-0.716c-3.599-2.2-6.602-5.294-8.719-8.976
		c-1.427,3.512-1.745,6.452-0.712,8.29l-0.855,0.866c-0.389,0.394-1.587,2.245-1.198,2.64C0.468,54.551,2.297,53.338,2.686,52.945z"
		/>
	<path d="M14.167,50.89c3.184-1.31,6.756-3.39,10.446-6.103c-6.895-2.951-12.455-8.413-15.543-15.233
		c-2.542,3.583-4.502,7.048-5.765,10.154C5.942,44.294,9.683,48.15,14.167,50.89z"/>
	<path d="M25.613,43.787c3.25-2.389,6.591-5.268,9.848-8.564c3.448-3.492,6.439-7.085,8.879-10.56
		c-6.814-2.998-12.298-8.454-15.333-15.248c-3.382,2.449-6.873,5.438-10.269,8.875c-3.352,3.394-6.269,6.881-8.668,10.264
		C13.158,35.375,18.718,40.836,25.613,43.787z"/>
	<path d="M45.34,23.664c0.536-0.764,1.035-1.519,1.517-2.269c0.162,0.378,0.396,0.663,0.716,0.794
		c0.239,0.098,0.505,0.09,0.781,0.025c-2.775,4.41-6.274,8.346-10.058,12.098c-0.229-0.175-0.524-0.282-0.891-0.282
		c-1.348,0-1.754,1.454-1.224,2.337c-0.217,0.207-0.432,0.416-0.65,0.622c-0.939,0.887,0.478,2.299,1.414,1.414
		c8.085-7.631,15.338-15.797,18.257-26.775c0.332-1.248-1.597-1.777-1.929-0.532c-0.372,1.4-0.822,2.75-1.334,4.059
		c-0.119-0.717-0.413-1.254-0.897-1.452c-0.032-0.013-0.068-0.009-0.101-0.019c2.011-5.003,2.209-9.066,0.121-11.18
		c-3.381-3.424-11.807-0.786-21.055,5.91C33.042,15.21,38.524,20.666,45.34,23.664z"/>
</g>
<g>
</g>
<g>
</g>
<g>
</g>
<g>
</g>
<g>
</g>
<g>
</g>
<g>
</g>
<g>
</g>
<g>
</g>
<g>
</g>
<g>
</g>
<g>
</g>
<g>
</g>
<g>
</g>
<g>
</g>
</svg>
